<svg width="232" height="56" viewBox="0 0 232 56" fill="none" xmlns="http://www.w3.org/2000/svg">
<rect width="232" height="56" rx="8" fill="#39B100"/>
<path d="M176 0H224C228.418 0 232 3.58172 232 8V48C232 52.4183 228.418 56 224 56H176V0Z" fill="#41C900"/>
<path d="M32.688 34H35.056L31.04 22.816H28.432L24.416 34H26.768L27.504 31.872H31.952L32.688 34ZM31.344 30.08H28.112L29.728 25.408L31.344 30.08ZM35.9811 29.536C35.9811 32.304 37.7731 34.144 40.0291 34.144C41.4211 34.144 42.4131 33.504 42.9411 32.688V34H45.2131V22.16H42.9411V26.368C42.3331 25.536 41.2131 24.992 40.0451 24.992C37.7731 24.992 35.9811 26.768 35.9811 29.536ZM42.9571 29.568C42.9571 31.248 41.8371 32.176 40.6051 32.176C39.4051 32.176 38.2691 31.216 38.2691 29.536C38.2691 27.856 39.4051 26.96 40.6051 26.96C41.8371 26.96 42.9571 27.888 42.9571 29.568ZM47.4009 34H49.6409V25.136H47.4009V34ZM48.5369 24.08C49.3209 24.08 49.9129 23.504 49.9129 22.768C49.9129 22.032 49.3209 21.456 48.5369 21.456C47.7369 21.456 47.1609 22.032 47.1609 22.768C47.1609 23.504 47.7369 24.08 48.5369 24.08ZM51.278 29.568C51.278 32.352 53.102 34.144 55.662 34.144C57.87 34.144 59.358 32.896 59.838 31.008H57.422C57.15 31.808 56.574 32.224 55.646 32.224C54.398 32.224 53.566 31.296 53.566 29.568C53.566 27.84 54.398 26.896 55.646 26.896C56.574 26.896 57.166 27.376 57.422 28.128H59.838C59.358 26.144 57.87 24.992 55.662 24.992C53.102 24.992 51.278 26.784 51.278 29.568ZM61.479 34H63.719V25.136H61.479V34ZM62.615 24.08C63.399 24.08 63.991 23.504 63.991 22.768C63.991 22.032 63.399 21.456 62.615 21.456C61.815 21.456 61.239 22.032 61.239 22.768C61.239 23.504 61.815 24.08 62.615 24.08ZM74.4921 29.568C74.4921 26.768 72.4921 24.992 69.9321 24.992C67.3721 24.992 65.3721 26.768 65.3721 29.568C65.3721 32.352 67.3081 34.144 69.8681 34.144C72.4441 34.144 74.4921 32.352 74.4921 29.568ZM67.6441 29.568C67.6441 27.792 68.7161 26.944 69.9001 26.944C71.0841 26.944 72.1881 27.792 72.1881 29.568C72.1881 31.328 71.0521 32.192 69.8681 32.192C68.6681 32.192 67.6441 31.328 67.6441 29.568ZM82.3433 34H84.5833V28.8C84.5833 26.352 83.1112 25.008 81.0473 25.008C79.9113 25.008 78.9513 25.488 78.3753 26.24V25.136H76.1353V34H78.3753V29.104C78.3753 27.68 79.1593 26.912 80.3753 26.912C81.5593 26.912 82.3433 27.68 82.3433 29.104V34ZM86.1374 29.536C86.1374 32.304 87.9294 34.144 90.1694 34.144C91.5774 34.144 92.5854 33.472 93.1134 32.704V34H95.3694V25.136H93.1134V26.4C92.5854 25.664 91.6094 24.992 90.1854 24.992C87.9294 24.992 86.1374 26.768 86.1374 29.536ZM93.1134 29.568C93.1134 31.248 91.9934 32.176 90.7614 32.176C89.5614 32.176 88.4254 31.216 88.4254 29.536C88.4254 27.856 89.5614 26.96 90.7614 26.96C91.9934 26.96 93.1134 27.888 93.1134 29.568ZM99.7971 29.584C99.7971 27.872 100.597 27.36 101.925 27.36H102.517V25.008C101.285 25.008 100.357 25.6 99.7971 26.512V25.136H97.5571V34H99.7971V29.584ZM110.078 26.416V25.136H107.838V38.224H110.078V32.736C110.622 33.456 111.614 34.144 113.006 34.144C115.278 34.144 117.054 32.304 117.054 29.536C117.054 26.768 115.278 24.992 113.006 24.992C111.63 24.992 110.606 25.664 110.078 26.416ZM114.766 29.536C114.766 31.216 113.63 32.176 112.414 32.176C111.214 32.176 110.078 31.248 110.078 29.568C110.078 27.888 111.214 26.96 112.414 26.96C113.63 26.96 114.766 27.856 114.766 29.536ZM120.922 29.584C120.922 27.872 121.722 27.36 123.05 27.36H123.642V25.008C122.41 25.008 121.482 25.6 120.922 26.512V25.136H118.682V34H120.922V29.584ZM124.575 29.536C124.575 32.304 126.367 34.144 128.607 34.144C130.015 34.144 131.023 33.472 131.551 32.704V34H133.807V25.136H131.551V26.4C131.023 25.664 130.047 24.992 128.623 24.992C126.367 24.992 124.575 26.768 124.575 29.536ZM131.551 29.568C131.551 31.248 130.431 32.176 129.199 32.176C127.999 32.176 126.863 31.216 126.863 29.536C126.863 27.856 127.999 26.96 129.199 26.96C130.431 26.96 131.551 27.888 131.551 29.568ZM136.347 31.248C136.347 33.28 137.483 34 139.179 34H140.587V32.112H139.547C138.843 32.112 138.603 31.856 138.603 31.264V26.976H140.587V25.136H138.603V22.944H136.347V25.136H135.291V26.976H136.347V31.248ZM150.758 29.568C150.758 26.768 148.758 24.992 146.198 24.992C143.638 24.992 141.638 26.768 141.638 29.568C141.638 32.352 143.574 34.144 146.134 34.144C148.71 34.144 150.758 32.352 150.758 29.568ZM143.91 29.568C143.91 27.792 144.982 26.944 146.166 26.944C147.35 26.944 148.454 27.792 148.454 29.568C148.454 31.328 147.318 32.192 146.134 32.192C144.934 32.192 143.91 31.328 143.91 29.568Z" fill="white"/>
<path d="M201 27L204 30L214 20" stroke="white" stroke-width="2" stroke-linecap="round" stroke-linejoin="round"/>
<path d="M213 28V35C213 35.5304 212.789 36.0391 212.414 36.4142C212.039 36.7893 211.53 37 211 37H197C196.47 37 195.961 36.7893 195.586 36.4142C195.211 36.0391 195 35.5304 195 35V21C195 20.4696 195.211 19.9609 195.586 19.5858C195.961 19.2107 196.47 19 197 19H208" stroke="white" stroke-width="2" stroke-linecap="round" stroke-linejoin="round"/>
</svg>
