<svg width="194" height="56" viewBox="0 0 194 56" fill="none" xmlns="http://www.w3.org/2000/svg">
<rect width="194" height="56" rx="8" fill="#39B100"/>
<path d="M138 0H186C190.418 0 194 3.58172 194 8V48C194 52.4183 190.418 56 186 56H138V0Z" fill="#41C900"/>
<path d="M32.416 22.816V30.496L27.344 22.816H25.104V34H27.344V26.336L32.416 34H34.656V22.816H32.416ZM45.4296 29.568C45.4296 26.768 43.4296 24.992 40.8696 24.992C38.3096 24.992 36.3096 26.768 36.3096 29.568C36.3096 32.352 38.2456 34.144 40.8056 34.144C43.3816 34.144 45.4296 32.352 45.4296 29.568ZM38.5816 29.568C38.5816 27.792 39.6536 26.944 40.8376 26.944C42.0216 26.944 43.1256 27.792 43.1256 29.568C43.1256 31.328 41.9896 32.192 40.8056 32.192C39.6056 32.192 38.5816 31.328 38.5816 29.568ZM46.1288 25.136L49.3928 34H52.1128L55.3928 25.136H53.0088L50.7688 31.936L48.5288 25.136H46.1288ZM65.2109 29.568C65.2109 26.768 63.2109 24.992 60.6509 24.992C58.0909 24.992 56.0909 26.768 56.0909 29.568C56.0909 32.352 58.0269 34.144 60.5869 34.144C63.1629 34.144 65.2109 32.352 65.2109 29.568ZM58.3629 29.568C58.3629 27.792 59.4349 26.944 60.6189 26.944C61.8029 26.944 62.9069 27.792 62.9069 29.568C62.9069 31.328 61.7709 32.192 60.5869 32.192C59.3869 32.192 58.3629 31.328 58.3629 29.568ZM72.9065 27.904V24.656H74.6825C75.9465 24.656 76.5065 25.264 76.5065 26.288C76.5065 27.28 75.9465 27.904 74.6825 27.904H72.9065ZM78.8105 26.288C78.8105 24.352 77.4665 22.832 74.7785 22.832H70.6665V34H72.9065V29.712H74.7785C77.6585 29.712 78.8105 27.984 78.8105 26.288ZM82.6409 29.584C82.6409 27.872 83.4409 27.36 84.7689 27.36H85.3609V25.008C84.1289 25.008 83.2009 25.6 82.6409 26.512V25.136H80.4009V34H82.6409V29.584ZM86.2936 29.536C86.2936 32.304 88.0856 34.144 90.3256 34.144C91.7336 34.144 92.7416 33.472 93.2696 32.704V34H95.5256V25.136H93.2696V26.4C92.7416 25.664 91.7656 24.992 90.3416 24.992C88.0856 24.992 86.2936 26.768 86.2936 29.536ZM93.2696 29.568C93.2696 31.248 92.1496 32.176 90.9176 32.176C89.7176 32.176 88.5816 31.216 88.5816 29.536C88.5816 27.856 89.7176 26.96 90.9176 26.96C92.1496 26.96 93.2696 27.888 93.2696 29.568ZM98.0654 31.248C98.0654 33.28 99.2014 34 100.897 34H102.305V32.112H101.265C100.561 32.112 100.321 31.856 100.321 31.264V26.976H102.305V25.136H100.321V22.944H98.0654V25.136H97.0094V26.976H98.0654V31.248ZM112.477 29.568C112.477 26.768 110.477 24.992 107.917 24.992C105.357 24.992 103.357 26.768 103.357 29.568C103.357 32.352 105.293 34.144 107.853 34.144C110.429 34.144 112.477 32.352 112.477 29.568ZM105.629 29.568C105.629 27.792 106.701 26.944 107.885 26.944C109.069 26.944 110.173 27.792 110.173 29.568C110.173 31.328 109.037 32.192 107.853 32.192C106.653 32.192 105.629 31.328 105.629 29.568Z" fill="white"/>
<path d="M173 19H159C157.895 19 157 19.8954 157 21V35C157 36.1046 157.895 37 159 37H173C174.105 37 175 36.1046 175 35V21C175 19.8954 174.105 19 173 19Z" stroke="white" stroke-width="2" stroke-linecap="round" stroke-linejoin="round"/>
<path d="M166 24V32" stroke="white" stroke-width="2" stroke-linecap="round" stroke-linejoin="round"/>
<path d="M162 28H170" stroke="white" stroke-width="2" stroke-linecap="round" stroke-linejoin="round"/>
</svg>
