<svg width="17" height="16" viewBox="0 0 17 16" fill="none" xmlns="http://www.w3.org/2000/svg">
<path d="M4.49219 9.39844H1.82031V14H0.3125V2.625H4.07812C5.35938 2.625 6.34375 2.91667 7.03125 3.5C7.72396 4.08333 8.07031 4.93229 8.07031 6.04688C8.07031 6.75521 7.8776 7.3724 7.49219 7.89844C7.11198 8.42448 6.58073 8.81771 5.89844 9.07812L8.57031 13.9062V14H6.96094L4.49219 9.39844ZM1.82031 8.17188H4.125C4.86979 8.17188 5.46094 7.97917 5.89844 7.59375C6.34115 7.20833 6.5625 6.69271 6.5625 6.04688C6.5625 5.34375 6.35156 4.80469 5.92969 4.42969C5.51302 4.05469 4.90885 3.86458 4.11719 3.85938H1.82031V8.17188ZM15.5469 11.0703C15.5469 10.5911 15.3776 10.1875 15.0391 9.85938C14.7057 9.53125 14.1406 9.23438 13.3438 8.96875C12.2344 8.63021 11.4245 8.1901 10.9141 7.64844C10.4089 7.10156 10.1562 6.40885 10.1562 5.57031C10.1562 4.71615 10.4036 4.01562 10.8984 3.46875C11.3984 2.92188 12.0833 2.59635 12.9531 2.49219V0.78125H14.1172V2.5C14.9922 2.61979 15.6719 2.98698 16.1562 3.60156C16.6458 4.21615 16.8906 5.05729 16.8906 6.125H15.4531C15.4531 5.39062 15.2786 4.80729 14.9297 4.375C14.5807 3.94271 14.1094 3.72656 13.5156 3.72656C12.8958 3.72656 12.4219 3.88802 12.0938 4.21094C11.7656 4.52865 11.6016 4.97396 11.6016 5.54688C11.6016 6.07812 11.7734 6.5026 12.1172 6.82031C12.4661 7.13281 13.0365 7.41927 13.8281 7.67969C14.625 7.9349 15.2448 8.21875 15.6875 8.53125C16.1354 8.83854 16.4635 9.19792 16.6719 9.60938C16.8854 10.0208 16.9922 10.5026 16.9922 11.0547C16.9922 11.9349 16.7266 12.6432 16.1953 13.1797C15.6693 13.7161 14.9297 14.0339 13.9766 14.1328V15.625H12.8203V14.1328C11.8516 14.0443 11.0911 13.7005 10.5391 13.1016C9.99219 12.4974 9.71875 11.6797 9.71875 10.6484H11.1641C11.1641 11.3724 11.3542 11.9297 11.7344 12.3203C12.1146 12.7109 12.6536 12.9062 13.3516 12.9062C14.0339 12.9062 14.5703 12.7422 14.9609 12.4141C15.3516 12.0859 15.5469 11.638 15.5469 11.0703Z" fill="#3D3D4D"/>
</svg>
